<?xml version="1.0" encoding="utf-8"?>
<!-- Generator: Adobe Illustrator 25.4.1, SVG Export Plug-In . SVG Version: 6.00 Build 0)  -->
<svg version="1.1" id="Capa_1" xmlns="http://www.w3.org/2000/svg" xmlns:xlink="http://www.w3.org/1999/xlink" x="0px" y="0px"
	 viewBox="0 0 100 100" style="enable-background:new 0 0 100 100;" xml:space="preserve">
<style type="text/css">
	.st0{fill:#192A32;}
</style>
<g>
	<g>
		<path class="st0" d="M50,100c-13.4,0-25.9-5.2-35.4-14.6C5.2,75.9,0,63.4,0,50s5.2-25.9,14.6-35.4C24.1,5.2,36.6,0,50,0
			s25.9,5.2,35.4,14.6c3.1,3.1,5.8,6.6,8,10.4l-10.8,6.3c-1.6-2.8-3.6-5.4-6-7.8c-7.1-7.1-16.5-11-26.5-11c-10,0-19.4,3.9-26.5,11
			c-7.1,7.1-11,16.5-11,26.5s3.9,19.4,11,26.5c7.1,7.1,16.5,11,26.5,11c10,0,19.4-3.9,26.5-11l8.8,8.8C75.9,94.8,63.4,100,50,100z"
			/>
	</g>
	<g>
		<polygon class="st0" points="100,38.1 59.4,38.1 59.4,25.8 87.7,25.8 87.7,0 100,0 		"/>
	</g>
</g>
</svg>
