<?xml version="1.0" encoding="utf-8"?>
<!-- Generator: Adobe Illustrator 25.4.1, SVG Export Plug-In . SVG Version: 6.00 Build 0)  -->
<svg version="1.1" id="Capa_1" xmlns="http://www.w3.org/2000/svg" xmlns:xlink="http://www.w3.org/1999/xlink" x="0px" y="0px"
	 viewBox="0 0 100 100" style="enable-background:new 0 0 100 100;" xml:space="preserve">
<style type="text/css">
	.st0{fill:#31C4BE;}
</style>
<path class="st0" d="M96.3,16.4L83.6,3.6c-2.3-2.3-6.1-2.3-8.5,0L50,28.8L24.8,3.6c-2.3-2.3-6.1-2.3-8.5,0L3.6,16.4
	c-2.3,2.3-2.3,6.1,0,8.5L28.7,50L3.6,75.2c-2.3,2.3-2.3,6.1,0,8.5l12.7,12.7c2.3,2.3,6.1,2.3,8.5,0L50,71.2l25.2,25.2
	c2.3,2.3,6.1,2.3,8.5,0l12.7-12.7c2.3-2.3,2.3-6.1,0-8.5L71.2,50l25.2-25.2C98.7,22.5,98.7,18.7,96.3,16.4z"/>
</svg>
